<svg width="98" height="35" viewBox="0 0 98 35" fill="none" xmlns="http://www.w3.org/2000/svg">
<g filter="url(#filter0_di_491_306)">
<rect x="4" width="90" height="27" rx="1" fill="#FDFCFC"/>
</g>
<g filter="url(#filter1_f_491_306)">
<rect x="7" y="16" width="70" height="4" fill="#D9D9D9"/>
</g>
<path d="M4 1C4 0.447716 4.44772 0 5 0H93C93.5523 0 94 0.447715 94 1V10H4V1Z" fill="#4364BC" fill-opacity="0.14"/>
<mask id="path-4-inside-1_491_306" fill="white">
<path d="M7 4.25C7 3.97386 7.22386 3.75 7.5 3.75H30.5C30.7761 3.75 31 3.97386 31 4.25V5.75C31 6.02614 30.7761 6.25 30.5 6.25H7.5C7.22386 6.25 7 6.02614 7 5.75V4.25Z"/>
</mask>
<path d="M7 4.25C7 3.97386 7.22386 3.75 7.5 3.75H30.5C30.7761 3.75 31 3.97386 31 4.25V5.75C31 6.02614 30.7761 6.25 30.5 6.25H7.5C7.22386 6.25 7 6.02614 7 5.75V4.25Z" fill="#97A9DA" stroke="#97A9DA" stroke-width="2" mask="url(#path-4-inside-1_491_306)"/>
<mask id="path-5-inside-2_491_306" fill="white">
<path d="M86 4.5C86 4.22386 86.2239 4 86.5 4H90.5C90.7761 4 91 4.22386 91 4.5V5.5C91 5.77614 90.7761 6 90.5 6H86.5C86.2239 6 86 5.77614 86 5.5V4.5Z"/>
</mask>
<path d="M86 4.5C86 4.22386 86.2239 4 86.5 4H90.5C90.7761 4 91 4.22386 91 4.5V5.5C91 5.77614 90.7761 6 90.5 6H86.5C86.2239 6 86 5.77614 86 5.5V4.5Z" fill="#97A9DA" stroke="#97A9DA" stroke-width="2" mask="url(#path-5-inside-2_491_306)"/>
<defs>
<filter id="filter0_di_491_306" x="0" y="0" width="98" height="35" filterUnits="userSpaceOnUse" color-interpolation-filters="sRGB">
<feFlood flood-opacity="0" result="BackgroundImageFix"/>
<feColorMatrix in="SourceAlpha" type="matrix" values="0 0 0 0 0 0 0 0 0 0 0 0 0 0 0 0 0 0 127 0" result="hardAlpha"/>
<feOffset dy="4"/>
<feGaussianBlur stdDeviation="2"/>
<feComposite in2="hardAlpha" operator="out"/>
<feColorMatrix type="matrix" values="0 0 0 0 0 0 0 0 0 0 0 0 0 0 0 0 0 0 0.25 0"/>
<feBlend mode="normal" in2="BackgroundImageFix" result="effect1_dropShadow_491_306"/>
<feBlend mode="normal" in="SourceGraphic" in2="effect1_dropShadow_491_306" result="shape"/>
<feColorMatrix in="SourceAlpha" type="matrix" values="0 0 0 0 0 0 0 0 0 0 0 0 0 0 0 0 0 0 127 0" result="hardAlpha"/>
<feOffset/>
<feGaussianBlur stdDeviation="0.5"/>
<feComposite in2="hardAlpha" operator="arithmetic" k2="-1" k3="1"/>
<feColorMatrix type="matrix" values="0 0 0 0 0 0 0 0 0 0 0 0 0 0 0 0 0 0 0.25 0"/>
<feBlend mode="normal" in2="shape" result="effect2_innerShadow_491_306"/>
</filter>
<filter id="filter1_f_491_306" x="6" y="15" width="72" height="6" filterUnits="userSpaceOnUse" color-interpolation-filters="sRGB">
<feFlood flood-opacity="0" result="BackgroundImageFix"/>
<feBlend mode="normal" in="SourceGraphic" in2="BackgroundImageFix" result="shape"/>
<feGaussianBlur stdDeviation="0.5" result="effect1_foregroundBlur_491_306"/>
</filter>
</defs>
</svg>
