<svg width="1440" height="1024" viewBox="0 0 1440 1024" fill="none" xmlns="http://www.w3.org/2000/svg">
<g clip-path="url(#clip0_293_995)">
<rect x="-64.8964" y="186.394" width="217.386" height="217.386" transform="rotate(-27.6047 -64.8964 186.394)" stroke="black" stroke-opacity="0.16" stroke-width="2" stroke-miterlimit="3.99393" stroke-linecap="square" stroke-dasharray="42 52"/>
<rect x="44.4117" y="395.44" width="217.386" height="157.712" transform="rotate(-27.6047 44.4117 395.44)" stroke="black" stroke-opacity="0.16" stroke-width="2" stroke-miterlimit="3.99393" stroke-linecap="square" stroke-dasharray="42 52"/>
<rect x="143.322" y="77.5182" width="192.211" height="393.61" transform="rotate(-27.6047 143.322 77.5182)" stroke="black" stroke-opacity="0.16" stroke-width="2" stroke-miterlimit="3.99393" stroke-linecap="square" stroke-dasharray="42 52"/>
<rect x="499.209" y="339.309" width="217.386" height="217.386" transform="rotate(-27.6047 499.209 339.309)" stroke="black" stroke-opacity="0.25" stroke-width="2" stroke-miterlimit="3.99393" stroke-linecap="square" stroke-dasharray="42 52"/>
<rect x="608.517" y="548.354" width="217.386" height="157.712" transform="rotate(-27.6047 608.517 548.354)" stroke="black" stroke-opacity="0.25" stroke-width="2" stroke-miterlimit="3.99393" stroke-linecap="square" stroke-dasharray="42 52"/>
<rect x="707.428" y="230.433" width="192.211" height="393.61" transform="rotate(-27.6047 707.428 230.433)" stroke="black" stroke-opacity="0.25" stroke-width="2" stroke-miterlimit="3.99393" stroke-linecap="square" stroke-dasharray="42 52"/>
<rect x="302.471" y="888.496" width="217.386" height="217.386" transform="rotate(-27.6047 302.471 888.496)" stroke="black" stroke-opacity="0.52" stroke-width="2" stroke-miterlimit="3.99393" stroke-linecap="square" stroke-dasharray="42 52"/>
<rect x="411.779" y="1097.54" width="217.386" height="157.712" transform="rotate(-27.6047 411.779 1097.54)" stroke="black" stroke-opacity="0.52" stroke-width="2" stroke-miterlimit="3.99393" stroke-linecap="square" stroke-dasharray="42 52"/>
<rect x="510.69" y="779.62" width="192.211" height="393.61" transform="rotate(-27.6047 510.69 779.62)" stroke="black" stroke-opacity="0.52" stroke-width="2" stroke-miterlimit="3.99393" stroke-linecap="square" stroke-dasharray="42 52"/>
<rect x="1063.31" y="490.359" width="217.386" height="217.386" transform="rotate(-27.6047 1063.31 490.359)" stroke="black" stroke-opacity="0.52" stroke-width="2" stroke-miterlimit="3.99393" stroke-linecap="square" stroke-dasharray="42 52"/>
<rect x="1172.62" y="699.404" width="217.386" height="157.712" transform="rotate(-27.6047 1172.62 699.404)" stroke="black" stroke-opacity="0.52" stroke-width="2" stroke-miterlimit="3.99393" stroke-linecap="square" stroke-dasharray="42 52"/>
<rect x="1271.53" y="381.483" width="192.211" height="393.61" transform="rotate(-27.6047 1271.53 381.483)" stroke="black" stroke-opacity="0.52" stroke-width="2" stroke-miterlimit="3.99393" stroke-linecap="square" stroke-dasharray="42 52"/>
<rect x="1259.12" y="-78.4089" width="217.386" height="217.386" transform="rotate(-27.6047 1259.12 -78.4089)" stroke="black" stroke-opacity="0.52" stroke-width="2" stroke-miterlimit="3.99393" stroke-linecap="square" stroke-dasharray="42 52"/>
<rect x="1368.43" y="130.636" width="217.386" height="157.712" transform="rotate(-27.6047 1368.43 130.636)" stroke="black" stroke-opacity="0.52" stroke-width="2" stroke-miterlimit="3.99393" stroke-linecap="square" stroke-dasharray="42 52"/>
<rect x="866.577" y="1039.55" width="217.386" height="217.386" transform="rotate(-27.6047 866.577 1039.55)" stroke="black" stroke-opacity="0.52" stroke-width="2" stroke-miterlimit="3.99393" stroke-linecap="square" stroke-dasharray="42 52"/>
<rect x="1074.8" y="930.67" width="192.211" height="393.61" transform="rotate(-27.6047 1074.8 930.67)" stroke="black" stroke-opacity="0.52" stroke-width="2" stroke-miterlimit="3.99393" stroke-linecap="square" stroke-dasharray="42 52"/>
<rect x="-261.634" y="735.581" width="217.386" height="217.386" transform="rotate(-27.6047 -261.634 735.581)" stroke="black" stroke-opacity="0.52" stroke-width="2" stroke-miterlimit="3.99393" stroke-linecap="square" stroke-dasharray="42 52"/>
<rect x="-152.326" y="944.627" width="217.386" height="157.712" transform="rotate(-27.6047 -152.326 944.627)" stroke="black" stroke-opacity="0.52" stroke-width="2" stroke-miterlimit="3.99393" stroke-linecap="square" stroke-dasharray="42 52"/>
<rect x="-53.4155" y="626.705" width="192.211" height="393.61" transform="rotate(-27.6047 -53.4155 626.705)" stroke="black" stroke-opacity="0.52" stroke-width="2" stroke-miterlimit="3.99393" stroke-linecap="square" stroke-dasharray="42 52"/>
</g>
<defs>
<clipPath id="clip0_293_995">
<rect width="1440" height="1024" fill="white"/>
</clipPath>
</defs>
</svg>
